<svg width="65" height="64" viewBox="0 0 65 64" fill="none" xmlns="http://www.w3.org/2000/svg">
<path d="M29.3997 28.7333H21.3997H36.933H29.3997ZM14.9997 48C12.0663 48 9.55523 46.9667 7.46634 44.9C5.37745 42.8333 4.33301 40.3111 4.33301 37.3333C4.33301 34.3556 5.37745 31.8333 7.46634 29.7667C9.55523 27.7 12.0663 26.6667 14.9997 26.6667H46.8663L38.2663 18.0667H30.533V16H39.133L49.7997 26.6C52.9997 26.5111 55.6663 27.5444 57.7997 29.7C59.933 31.8556 60.9997 34.4 60.9997 37.3333C60.9997 40.3111 59.9552 42.8333 57.8663 44.9C55.7775 46.9667 53.2663 48 50.333 48C47.3552 48 44.833 46.9667 42.7663 44.9C40.6997 42.8333 39.6663 40.3111 39.6663 37.3333C39.6663 35.9556 39.9775 34.6444 40.5997 33.4C41.2219 32.1556 42.0219 31.0667 42.9997 30.1333H38.4663L29.933 38.6667H25.533C25.2663 41.3333 24.133 43.5556 22.133 45.3333C20.133 47.1111 17.7552 48 14.9997 48ZM50.333 45.9333C52.6886 45.9333 54.7108 45.1 56.3997 43.4333C58.0886 41.7667 58.933 39.7333 58.933 37.3333C58.933 34.9778 58.0886 32.9556 56.3997 31.2667C54.7108 29.5778 52.6886 28.7333 50.333 28.7333C47.933 28.7333 45.8886 29.5667 44.1997 31.2333C42.5108 32.9 41.6663 34.9333 41.6663 37.3333C41.6663 39.6889 42.5108 41.7111 44.1997 43.4C45.8886 45.0889 47.933 45.9333 50.333 45.9333ZM14.9997 45.9333C17.133 45.9333 19.0219 45.2444 20.6663 43.8667C22.3108 42.4889 23.3108 40.6444 23.6663 38.3333H15.6663V36.3333H23.6663C23.3108 34.0222 22.3108 32.1778 20.6663 30.8C19.0219 29.4222 17.133 28.7333 14.9997 28.7333C12.6441 28.7333 10.6219 29.5667 8.93301 31.2333C7.24412 32.9 6.39967 34.9333 6.39967 37.3333C6.39967 39.6889 7.24412 41.7111 8.93301 43.4C10.6219 45.0889 12.6441 45.9333 14.9997 45.9333ZM25.6663 36.3333H29.3997L36.933 28.7333H21.3997C22.5997 29.5778 23.5775 30.6556 24.333 31.9667C25.0886 33.2778 25.533 34.7333 25.6663 36.3333Z" fill="#A53860"/>
</svg>
