<svg width="18" height="18" viewBox="0 0 18 18" fill="none" xmlns="http://www.w3.org/2000/svg">
<g id="Icon / Delivery">
<path id="Vector" d="M4.2 14.9813C3.5875 14.9813 3.06562 14.7656 2.63438 14.3344C2.20312 13.9031 1.9875 13.3813 1.9875 12.7688H0.75V4.125C0.75 3.825 0.8625 3.5625 1.0875 3.3375C1.3125 3.1125 1.575 3 1.875 3H12.7313V6.13125H14.7L17.25 9.525V12.7688H15.9188C15.9188 13.3813 15.7031 13.9031 15.2719 14.3344C14.8406 14.7656 14.3187 14.9813 13.7062 14.9813C13.0938 14.9813 12.5719 14.7656 12.1406 14.3344C11.7094 13.9031 11.4937 13.3813 11.4937 12.7688H6.4125C6.4125 13.3813 6.19688 13.9031 5.76562 14.3344C5.33437 14.7656 4.8125 14.9813 4.2 14.9813ZM4.2 13.8563C4.5 13.8563 4.75625 13.75 4.96875 13.5375C5.18125 13.325 5.2875 13.0688 5.2875 12.7688C5.2875 12.4688 5.18125 12.2125 4.96875 12C4.75625 11.7875 4.5 11.6813 4.2 11.6813C3.9 11.6813 3.64375 11.7875 3.43125 12C3.21875 12.2125 3.1125 12.4688 3.1125 12.7688C3.1125 13.0688 3.21875 13.325 3.43125 13.5375C3.64375 13.75 3.9 13.8563 4.2 13.8563ZM1.875 11.6438H2.2875C2.5 11.3063 2.76875 11.0375 3.09375 10.8375C3.41875 10.6375 3.78125 10.5375 4.18125 10.5375C4.58125 10.5375 4.94688 10.6406 5.27812 10.8469C5.60938 11.0531 5.88125 11.3188 6.09375 11.6438H11.6063V4.125H1.875V11.6438ZM13.7062 13.8563C14.0062 13.8563 14.2625 13.75 14.475 13.5375C14.6875 13.325 14.7938 13.0688 14.7938 12.7688C14.7938 12.4688 14.6875 12.2125 14.475 12C14.2625 11.7875 14.0062 11.6813 13.7062 11.6813C13.4062 11.6813 13.15 11.7875 12.9375 12C12.725 12.2125 12.6188 12.4688 12.6188 12.7688C12.6188 13.0688 12.725 13.325 12.9375 13.5375C13.15 13.75 13.4062 13.8563 13.7062 13.8563ZM12.7313 10.0313H16.2188L14.1375 7.25625H12.7313V10.0313Z" fill="black"/>
</g>
</svg>
