<svg width="18" height="18" viewBox="0 0 18 18" fill="none" xmlns="http://www.w3.org/2000/svg">
<g id="Icon / Gift discount">
<path id="Vector" d="M15 4.5H13.365C13.4475 4.2675 13.5 4.0125 13.5 3.75C13.5 2.505 12.495 1.5 11.25 1.5C10.4625 1.5 9.78 1.905 9.375 2.5125L9 3.015L8.625 2.505C8.22 1.905 7.5375 1.5 6.75 1.5C5.505 1.5 4.5 2.505 4.5 3.75C4.5 4.0125 4.5525 4.2675 4.635 4.5H3C2.1675 4.5 1.5075 5.1675 1.5075 6L1.5 14.25C1.5 15.0825 2.1675 15.75 3 15.75H15C15.8325 15.75 16.5 15.0825 16.5 14.25V6C16.5 5.1675 15.8325 4.5 15 4.5ZM11.25 3C11.6625 3 12 3.3375 12 3.75C12 4.1625 11.6625 4.5 11.25 4.5C10.8375 4.5 10.5 4.1625 10.5 3.75C10.5 3.3375 10.8375 3 11.25 3ZM6.75 3C7.1625 3 7.5 3.3375 7.5 3.75C7.5 4.1625 7.1625 4.5 6.75 4.5C6.3375 4.5 6 4.1625 6 3.75C6 3.3375 6.3375 3 6.75 3ZM15 14.25H3V12.75H15V14.25ZM15 10.5H3V6H6.81L5.25 8.1225L6.465 9L9 5.55L11.535 9L12.75 8.1225L11.19 6H15V10.5Z" fill="black"/>
</g>
</svg>
