<svg width="18" height="18" viewBox="0 0 18 18" fill="none" xmlns="http://www.w3.org/2000/svg">
<g id="Icon / Limited">
<path id="Vector" d="M10.425 7.76786H9V6.375H10.425V7.76786ZM10.425 4.98214H9V1.5H10.425V4.98214ZM6.15 13.3393C5.36625 13.3393 4.73213 13.9661 4.73213 14.7321C4.73213 15.4982 5.36625 16.125 6.15 16.125C6.93375 16.125 7.575 15.4982 7.575 14.7321C7.575 13.9661 6.93375 13.3393 6.15 13.3393ZM13.275 13.3393C12.4913 13.3393 11.8571 13.9661 11.8571 14.7321C11.8571 15.4982 12.4913 16.125 13.275 16.125C14.0587 16.125 14.7 15.4982 14.7 14.7321C14.7 13.9661 14.0587 13.3393 13.275 13.3393ZM6.93375 9.85714H12.2419C12.7762 9.85714 13.2465 9.57161 13.4887 9.13982L16.125 4.25786L14.8781 3.58929L12.2419 8.46429H7.24012L4.20487 2.19643H1.875V3.58929H3.3L5.865 8.87518L4.90312 10.5745C4.383 11.5077 5.067 12.6429 6.15 12.6429H14.7V11.25H6.15L6.93375 9.85714Z" fill="black"/>
</g>
</svg>
