<svg width="18" height="18" viewBox="0 0 18 18" fill="none" xmlns="http://www.w3.org/2000/svg">
<g id="Icon / New">
<path id="Vector" d="M6.4875 16.875L5.0625 14.4375L2.23125 13.8563L2.55 11.1L0.75 9L2.55 6.91875L2.23125 4.1625L5.0625 3.58125L6.4875 1.125L9 2.2875L11.5125 1.125L12.9562 3.58125L15.7687 4.1625L15.45 6.91875L17.25 9L15.45 11.1L15.7687 13.8563L12.9562 14.4375L11.5125 16.875L9 15.7125L6.4875 16.875ZM6.99375 15.3937L9 14.55L11.0625 15.3937L12.3187 13.5187L14.5125 12.9562L14.2875 10.725L15.8063 9L14.2875 7.2375L14.5125 5.00625L12.3187 4.48125L11.025 2.60625L9 3.45L6.9375 2.60625L5.68125 4.48125L3.4875 5.00625L3.7125 7.2375L2.19375 9L3.7125 10.725L3.4875 12.9938L5.68125 13.5187L6.99375 15.3937ZM8.19375 11.4937L12.45 7.275L11.6063 6.50625L8.19375 9.88125L6.4125 8.025L5.55 8.86875L8.19375 11.4937Z" fill="black"/>
</g>
</svg>
