<svg width="18" height="18" viewBox="0 0 18 18" fill="none" xmlns="http://www.w3.org/2000/svg">
<g id="Icon / Not Allowed">
<path id="Vector" d="M9 16.5C7.9625 16.5 6.9875 16.3031 6.075 15.9094C5.1625 15.5156 4.36875 14.9813 3.69375 14.3063C3.01875 13.6313 2.48437 12.8375 2.09062 11.925C1.69687 11.0125 1.5 10.0375 1.5 9C1.5 7.9625 1.69687 6.9875 2.09062 6.075C2.48437 5.1625 3.01875 4.36875 3.69375 3.69375C4.36875 3.01875 5.1625 2.48437 6.075 2.09062C6.9875 1.69687 7.9625 1.5 9 1.5C10.0375 1.5 11.0125 1.69687 11.925 2.09062C12.8375 2.48437 13.6313 3.01875 14.3063 3.69375C14.9813 4.36875 15.5156 5.1625 15.9094 6.075C16.3031 6.9875 16.5 7.9625 16.5 9C16.5 10.0375 16.3031 11.0125 15.9094 11.925C15.5156 12.8375 14.9813 13.6313 14.3063 14.3063C13.6313 14.9813 12.8375 15.5156 11.925 15.9094C11.0125 16.3031 10.0375 16.5 9 16.5ZM9 15.375C10.775 15.375 12.2812 14.7562 13.5187 13.5187C14.7562 12.2812 15.375 10.775 15.375 9C15.375 8.2375 15.2438 7.50625 14.9813 6.80625C14.7188 6.10625 14.35 5.46875 13.875 4.89375L4.89375 13.875C5.45625 14.3625 6.09062 14.7344 6.79688 14.9906C7.50313 15.2469 8.2375 15.375 9 15.375ZM4.14375 13.1063L13.1063 4.14375C12.5312 3.65625 11.8938 3.28125 11.1938 3.01875C10.4938 2.75625 9.7625 2.625 9 2.625C7.225 2.625 5.71875 3.24375 4.48125 4.48125C3.24375 5.71875 2.625 7.225 2.625 9C2.625 9.7625 2.7625 10.4969 3.0375 11.2031C3.3125 11.9094 3.68125 12.5438 4.14375 13.1063Z" fill="black"/>
</g>
</svg>
