<svg width="18" height="18" viewBox="0 0 18 18" fill="none" xmlns="http://www.w3.org/2000/svg">
<g id="Icon / Pickup">
<path id="Vector" d="M2.25 15.3375V6.1125C2.075 6.0875 1.90625 5.9625 1.74375 5.7375C1.58125 5.5125 1.5 5.26875 1.5 5.00625V2.625C1.5 2.3375 1.6125 2.07813 1.8375 1.84688C2.0625 1.61563 2.325 1.5 2.625 1.5H15.375C15.6625 1.5 15.9219 1.61563 16.1531 1.84688C16.3844 2.07813 16.5 2.3375 16.5 2.625V5.00625C16.5 5.26875 16.4187 5.5125 16.2562 5.7375C16.0937 5.9625 15.925 6.0875 15.75 6.1125V15.3375C15.75 15.625 15.6344 15.8906 15.4031 16.1344C15.1719 16.3781 14.9125 16.5 14.625 16.5H3.375C3.075 16.5 2.8125 16.3781 2.5875 16.1344C2.3625 15.8906 2.25 15.625 2.25 15.3375ZM3.375 6.13125V15.375H14.625V6.13125H3.375ZM15.375 5.00625V2.625H2.625V5.00625H15.375ZM6.75 10.0688H11.25V8.94375H6.75V10.0688ZM3.375 15.375V6.13125V15.375Z" fill="black"/>
</g>
</svg>
