<svg width="18" height="18" viewBox="0 0 18 18" fill="none" xmlns="http://www.w3.org/2000/svg">
<g id="Icon / Unknown">
<path id="Vector" d="M9.075 13.3688C9.275 13.3688 9.44375 13.3 9.58125 13.1625C9.71875 13.025 9.7875 12.8562 9.7875 12.6562C9.7875 12.4563 9.71875 12.2875 9.58125 12.15C9.44375 12.0125 9.275 11.9438 9.075 11.9438C8.875 11.9438 8.70625 12.0125 8.56875 12.15C8.43125 12.2875 8.3625 12.4563 8.3625 12.6562C8.3625 12.8562 8.43125 13.025 8.56875 13.1625C8.70625 13.3 8.875 13.3688 9.075 13.3688ZM8.41875 10.6313H9.525C9.525 10.3063 9.56563 10.0094 9.64688 9.74063C9.72813 9.47188 9.98125 9.1625 10.4062 8.8125C10.7937 8.4875 11.0688 8.16875 11.2313 7.85625C11.3938 7.54375 11.475 7.2 11.475 6.825C11.475 6.1625 11.2594 5.63125 10.8281 5.23125C10.3969 4.83125 9.825 4.63125 9.1125 4.63125C8.5 4.63125 7.95938 4.78437 7.49063 5.09062C7.02188 5.39687 6.68125 5.81875 6.46875 6.35625L7.4625 6.73125C7.6 6.38125 7.80625 6.10938 8.08125 5.91562C8.35625 5.72187 8.68125 5.625 9.05625 5.625C9.48125 5.625 9.825 5.74062 10.0875 5.97188C10.35 6.20312 10.4813 6.5 10.4813 6.8625C10.4813 7.1375 10.4 7.39687 10.2375 7.64062C10.075 7.88438 9.8375 8.1375 9.525 8.4C9.15 8.725 8.87187 9.04688 8.69062 9.36563C8.50937 9.68437 8.41875 10.1062 8.41875 10.6313ZM9 16.5C7.975 16.5 7.00625 16.3031 6.09375 15.9094C5.18125 15.5156 4.38438 14.9781 3.70312 14.2969C3.02188 13.6156 2.48437 12.8188 2.09062 11.9062C1.69687 10.9937 1.5 10.025 1.5 9C1.5 7.9625 1.69687 6.9875 2.09062 6.075C2.48437 5.1625 3.02188 4.36875 3.70312 3.69375C4.38438 3.01875 5.18125 2.48437 6.09375 2.09062C7.00625 1.69687 7.975 1.5 9 1.5C10.0375 1.5 11.0125 1.69687 11.925 2.09062C12.8375 2.48437 13.6313 3.01875 14.3063 3.69375C14.9813 4.36875 15.5156 5.1625 15.9094 6.075C16.3031 6.9875 16.5 7.9625 16.5 9C16.5 10.025 16.3031 10.9937 15.9094 11.9062C15.5156 12.8188 14.9813 13.6156 14.3063 14.2969C13.6313 14.9781 12.8375 15.5156 11.925 15.9094C11.0125 16.3031 10.0375 16.5 9 16.5ZM9 15.375C10.775 15.375 12.2812 14.7531 13.5187 13.5094C14.7562 12.2656 15.375 10.7625 15.375 9C15.375 7.225 14.7562 5.71875 13.5187 4.48125C12.2812 3.24375 10.775 2.625 9 2.625C7.2375 2.625 5.73438 3.24375 4.49063 4.48125C3.24688 5.71875 2.625 7.225 2.625 9C2.625 10.7625 3.24688 12.2656 4.49063 13.5094C5.73438 14.7531 7.2375 15.375 9 15.375Z" fill="black"/>
</g>
</svg>
