<svg width="40" height="40" viewBox="0 0 40 40" fill="none" xmlns="http://www.w3.org/2000/svg">
<path d="M20 19.4583C18.3889 19.4583 17.0625 18.9375 16.0208 17.8958C14.9792 16.8541 14.4583 15.5277 14.4583 13.9166C14.4583 12.3055 14.9792 10.9861 16.0208 9.95829C17.0625 8.93051 18.3889 8.41663 20 8.41663C21.6111 8.41663 22.9375 8.93051 23.9792 9.95829C25.0208 10.9861 25.5417 12.3055 25.5417 13.9166C25.5417 15.5277 25.0208 16.8541 23.9792 17.8958C22.9375 18.9375 21.6111 19.4583 20 19.4583ZM7.5 32.1666V29C7.5 28.1111 7.73611 27.3333 8.20833 26.6666C8.68056 26 9.29167 25.4861 10.0417 25.125C11.8194 24.3472 13.5208 23.7638 15.1458 23.375C16.7708 22.9861 18.3889 22.7916 20 22.7916C21.6111 22.7916 23.2292 22.993 24.8542 23.3958C26.4792 23.7986 28.1667 24.3888 29.9167 25.1666C30.6944 25.5277 31.3194 26.0347 31.7917 26.6875C32.2639 27.3402 32.5 28.1111 32.5 29V32.1666H7.5ZM9.375 30.2916H30.625V29C30.625 28.5833 30.4861 28.1736 30.2083 27.7708C29.9306 27.368 29.5694 27.0555 29.125 26.8333C27.4861 26.0277 25.9375 25.4652 24.4792 25.1458C23.0208 24.8263 21.5278 24.6666 20 24.6666C18.4722 24.6666 16.9653 24.8263 15.4792 25.1458C13.9931 25.4652 12.4444 26.0277 10.8333 26.8333C10.4167 27.0555 10.0694 27.368 9.79167 27.7708C9.51389 28.1736 9.375 28.5833 9.375 29V30.2916ZM20 17.5833C21.0278 17.5833 21.8889 17.2361 22.5833 16.5416C23.2778 15.8472 23.625 14.9722 23.625 13.9166C23.625 12.8888 23.2778 12.0277 22.5833 11.3333C21.8889 10.6388 21.0278 10.2916 20 10.2916C18.9722 10.2916 18.1111 10.6388 17.4167 11.3333C16.7222 12.0277 16.375 12.8888 16.375 13.9166C16.375 14.9722 16.7222 15.8472 17.4167 16.5416C18.1111 17.2361 18.9722 17.5833 20 17.5833Z" fill="#E55F5F"/>
</svg>
