<svg width="40" height="40" viewBox="0 0 40 40" fill="none" xmlns="http://www.w3.org/2000/svg">
<path d="M9.91667 35.8333C9.25 35.8333 8.68056 35.5972 8.20833 35.125C7.73611 34.6527 7.5 34.0833 7.5 33.4166V13.25C7.5 12.5833 7.73611 12.0138 8.20833 11.5416C8.68056 11.0694 9.25 10.8333 9.91667 10.8333H14.0417V10.125C14.0417 8.45829 14.6181 7.04857 15.7708 5.89579C16.9236 4.74301 18.3333 4.16663 20 4.16663C21.6667 4.16663 23.0764 4.74301 24.2292 5.89579C25.3819 7.04857 25.9583 8.45829 25.9583 10.125V10.8333H30.0833C30.75 10.8333 31.3194 11.0694 31.7917 11.5416C32.2639 12.0138 32.5 12.5833 32.5 13.25V33.4166C32.5 34.0833 32.2639 34.6527 31.7917 35.125C31.3194 35.5972 30.75 35.8333 30.0833 35.8333H9.91667ZM9.91667 33.9583H30.0833C30.2222 33.9583 30.3472 33.9027 30.4583 33.7916C30.5694 33.6805 30.625 33.5555 30.625 33.4166V13.25C30.625 13.1111 30.5694 12.9861 30.4583 12.875C30.3472 12.7638 30.2222 12.7083 30.0833 12.7083H25.9583V16.7916C25.9583 17.0416 25.8681 17.2569 25.6875 17.4375C25.5069 17.618 25.2778 17.7083 25 17.7083C24.7222 17.7083 24.4931 17.618 24.3125 17.4375C24.1319 17.2569 24.0417 17.0416 24.0417 16.7916V12.7083H15.9583V16.7916C15.9583 17.0416 15.8681 17.2569 15.6875 17.4375C15.5069 17.618 15.2778 17.7083 15 17.7083C14.7222 17.7083 14.4931 17.618 14.3125 17.4375C14.1319 17.2569 14.0417 17.0416 14.0417 16.7916V12.7083H9.91667C9.77778 12.7083 9.65278 12.7638 9.54167 12.875C9.43056 12.9861 9.375 13.1111 9.375 13.25V33.4166C9.375 33.5555 9.43056 33.6805 9.54167 33.7916C9.65278 33.9027 9.77778 33.9583 9.91667 33.9583ZM15.9583 10.8333H24.0417V10.125C24.0417 8.98607 23.6528 8.02079 22.875 7.22913C22.0972 6.43746 21.1389 6.04163 20 6.04163C18.8611 6.04163 17.9028 6.43746 17.125 7.22913C16.3472 8.02079 15.9583 8.98607 15.9583 10.125V10.8333ZM9.375 33.9583V12.7083V33.9583Z" fill="#E55F5F"/>
</svg>
