<svg width="32" height="32" viewBox="0 0 32 32" fill="none" xmlns="http://www.w3.org/2000/svg">
<path d="M6.73338 28.0001C6.20005 28.0001 5.74449 27.8112 5.36672 27.4334C4.98894 27.0556 4.80005 26.6001 4.80005 26.0667V6.60008C4.80005 6.06675 4.98894 5.61119 5.36672 5.23341C5.74449 4.85564 6.20005 4.66675 6.73338 4.66675H15.9334V6.16675H6.73338C6.62227 6.16675 6.52227 6.21119 6.43338 6.30008C6.34449 6.38897 6.30005 6.48897 6.30005 6.60008V26.0667C6.30005 26.1779 6.34449 26.2779 6.43338 26.3667C6.52227 26.4556 6.62227 26.5001 6.73338 26.5001H15.9334V28.0001H6.73338ZM22.1334 21.4001L21.0334 20.3334L24.3 17.1001H12.5334V15.5667H24.2667L21 12.3334L22.1 11.2334L27.2 16.3667L22.1334 21.4001Z" fill="#E55F5F"/>
</svg>
