<svg width="40" height="40" viewBox="0 0 40 40" fill="none" xmlns="http://www.w3.org/2000/svg">
<path d="M20 33.8333L18.6667 32.6667C15.8056 30.0278 13.4445 27.7639 11.5834 25.875C9.72224 23.9861 8.23613 22.3056 7.12502 20.8333C6.01391 19.3611 5.24308 18.0347 4.81252 16.8542C4.38196 15.6736 4.16669 14.4861 4.16669 13.2917C4.16669 11.0139 4.93752 9.10417 6.47919 7.5625C8.02085 6.02083 9.93058 5.25 12.2084 5.25C13.7639 5.25 15.2014 5.63889 16.5209 6.41667C17.8403 7.19444 19 8.33333 20 9.83333C21.1111 8.27778 22.3125 7.125 23.6042 6.375C24.8959 5.625 26.2917 5.25 27.7917 5.25C30.0695 5.25 31.9792 6.02083 33.5209 7.5625C35.0625 9.10417 35.8334 11.0139 35.8334 13.2917C35.8334 14.4861 35.6181 15.6736 35.1875 16.8542C34.757 18.0347 33.9861 19.3611 32.875 20.8333C31.7639 22.3056 30.2778 23.9861 28.4167 25.875C26.5556 27.7639 24.1945 30.0278 21.3334 32.6667L20 33.8333ZM20 31.3333C22.7778 28.8056 25.0625 26.6389 26.8542 24.8333C28.6459 23.0278 30.0625 21.4444 31.1042 20.0833C32.1459 18.7222 32.882 17.5139 33.3125 16.4583C33.7431 15.4028 33.9584 14.3472 33.9584 13.2917C33.9584 11.5139 33.375 10.0417 32.2084 8.875C31.0417 7.70833 29.5834 7.125 27.8334 7.125C26.3889 7.125 25.0764 7.54861 23.8959 8.39583C22.7153 9.24306 21.6806 10.5 20.7917 12.1667H19.2084C18.3195 10.5278 17.2778 9.27778 16.0834 8.41667C14.8889 7.55556 13.5834 7.125 12.1667 7.125C10.4167 7.125 8.95835 7.70833 7.79169 8.875C6.62502 10.0417 6.04169 11.5278 6.04169 13.3333C6.04169 14.3611 6.25696 15.4028 6.68752 16.4583C7.11808 17.5139 7.85419 18.7292 8.89585 20.1042C9.93752 21.4792 11.3611 23.0625 13.1667 24.8542C14.9722 26.6458 17.25 28.8056 20 31.3333Z" fill="#E55F5F"/>
</svg>
