<svg width="40" height="40" viewBox="0 0 40 40" fill="none" xmlns="http://www.w3.org/2000/svg">
<path d="M32.9584 34.25L22.125 23.4583C21.2917 24.1806 20.3264 24.7431 19.2292 25.1458C18.132 25.5486 16.9861 25.75 15.7917 25.75C12.9584 25.75 10.5625 24.7708 8.60419 22.8125C6.64585 20.8542 5.66669 18.4722 5.66669 15.6667C5.66669 12.8889 6.64585 10.5208 8.60419 8.5625C10.5625 6.60417 12.9445 5.625 15.75 5.625C18.5556 5.625 20.9375 6.60417 22.8959 8.5625C24.8542 10.5208 25.8334 12.8889 25.8334 15.6667C25.8334 16.8333 25.632 17.9722 25.2292 19.0833C24.8264 20.1944 24.25 21.1944 23.5 22.0833L34.3334 32.875L32.9584 34.25ZM15.7917 23.875C18.0417 23.875 19.9584 23.0764 21.5417 21.4792C23.125 19.8819 23.9167 17.9444 23.9167 15.6667C23.9167 13.3889 23.125 11.4583 21.5417 9.875C19.9584 8.29167 18.0417 7.5 15.7917 7.5C13.4861 7.5 11.5417 8.29167 9.95835 9.875C8.37502 11.4583 7.58335 13.3889 7.58335 15.6667C7.58335 17.9444 8.37502 19.8819 9.95835 21.4792C11.5417 23.0764 13.4861 23.875 15.7917 23.875Z" fill="#E55F5F"/>
</svg>
